HIERARCHY
ROOT Hips
{
	OFFSET 0.000000 0.000000 0.000000
	CHANNELS 6 Xposition Yposition Zposition Zrotation Yrotation Xrotation 
	JOINT LHipJoint
	{
		OFFSET 0.000000 0.000000 0.000000
		CHANNELS 3 Zrotation Yrotation Xrotation
		JOINT LeftUpLeg
		{
			OFFSET 1.363060 -1.794630 0.839290
			CHANNELS 3 Zrotation Yrotation Xrotation
			JOINT LeftLeg
			{
				OFFSET 2.448110 -6.726130 0.000000
				CHANNELS 3 Zrotation Yrotation Xrotation
				JOINT LeftFoot
				{
					OFFSET 2.562200 -7.039590 0.000000
					CHANNELS 3 Zrotation Yrotation Xrotation
					JOINT LeftToeBase
					{
						OFFSET 0.157640 -0.433110 2.322550
						CHANNELS 3 Zrotation Yrotation Xrotation
						End Site
						{
							OFFSET 0.000000 0.000000 0.000000
						}
					}
				}
			}
		}
	}
	JOINT RHipJoint
	{
		OFFSET 0.000000 0.000000 0.000000
		CHANNELS 3 Zrotation Yrotation Xrotation
		JOINT RightUpLeg
		{
			OFFSET -1.305520 -1.794630 0.839290
			CHANNELS 3 Zrotation Yrotation Xrotation
			JOINT RightLeg
			{
				OFFSET -2.542530 -6.985550 0.000000
				CHANNELS 3 Zrotation Yrotation Xrotation
				JOINT RightFoot
				{
					OFFSET -2.568260 -7.056230 0.000000
					CHANNELS 3 Zrotation Yrotation Xrotation
					JOINT RightToeBase
					{
						OFFSET -0.164730 -0.452590 2.363150
						CHANNELS 3 Zrotation Yrotation Xrotation
						End Site
						{
							OFFSET 0.000000 0.000000 0.000000
						}
					}
				}
			}
		}
	}
}
MOTION
Frames: 25
Frame Time: 0.008333
18.505889 16.808638 2.191313 163.866660 -81.836877 -143.597177 -8.904475 -0.757709 -0.154870 -13.966905 -0.374309 -42.595916 -3.128792 0.091461 12.408442 -0.081015 0.042772 7.883004 0.468800 -0.000001 -24.992900 9.834043 -1.536061 -2.846223 7.159393 -2.464917 -2.916426 2.959811 -0.882180 19.327277 0.733523 9.291768 -11.429231 -0.445200 0.000000 -48.596100
18.377131 16.836556 2.196516 163.045122 -81.768623 -142.728774 -8.853390 -0.730769 -0.124167 -13.899630 -0.918186 -42.189789 -3.065608 0.095585 12.924922 0.004560 0.604086 7.159513 0.605000 -0.000000 -23.849400 9.991032 -1.582855 -2.986813 6.676485 -2.875492 -3.767070 2.818904 -1.184208 21.408530 0.812948 9.582181 -10.026149 -0.319100 0.000000 -51.813500
18.249870 16.865718 2.204854 162.646602 -81.659439 -142.271934 -8.812998 -0.706147 -0.094068 -13.812681 -1.409285 -41.736403 -3.008089 0.085160 13.299656 0.094129 1.164104 6.382420 0.725700 -0.000000 -22.781900 10.139707 -1.624673 -3.123579 6.224700 -3.277727 -4.761029 2.652128 -1.493612 23.655810 0.888712 9.919086 -8.407655 -0.144099 0.000000 -55.215000
18.124351 16.895309 2.216373 162.771427 -81.509564 -142.320260 -8.790892 -0.683612 -0.069328 -13.706111 -1.798423 -41.276043 -2.957519 0.066909 13.560099 0.180623 1.671060 5.597398 0.818100 -0.000000 -21.803800 10.271184 -1.661319 -3.241298 5.838093 -3.616290 -5.881220 2.456715 -1.799506 26.027572 0.951429 10.265627 -6.591099 0.089300 0.000000 -58.564800
18.000365 16.924645 2.230156 163.300703 -81.317623 -142.756246 -8.782261 -0.661318 -0.055232 -13.603530 -2.071690 -40.815151 -2.916652 0.042754 13.710322 0.259828 2.111112 4.853542 0.883799 0.000000 -20.934000 10.394308 -1.688634 -3.336005 5.500726 -3.885300 -7.117403 2.231548 -2.095520 28.499782 0.995552 10.614531 -4.604398 0.385100 -0.000000 -61.743200
17.878028 16.953070 2.245422 164.169478 -81.087115 -143.516195 -8.785308 -0.638430 -0.056050 -13.515837 -2.210539 -40.370926 -2.886801 0.016353 13.775386 0.327245 2.463678 4.178483 0.923100 -0.000000 -20.186900 10.510745 -1.703863 -3.401636 5.217097 -4.062890 -8.445769 1.979370 -2.373489 31.034140 1.014577 10.935033 -2.495283 0.740300 -0.000001 -64.576199
17.757183 16.980147 2.261241 165.260715 -80.824309 -144.487953 -8.795877 -0.614603 -0.075317 -13.455413 -2.211648 -39.950520 -2.868943 -0.009906 13.779883 0.380266 2.721660 3.586442 0.939600 -0.000000 -19.571800 10.623759 -1.704203 -3.436788 4.982046 -4.141784 -9.840035 1.706257 -2.627711 33.595479 1.004379 11.194559 -0.326628 1.142100 -0.000001 -66.947701
17.637850 17.005596 2.276650 166.447592 -80.538075 -145.551143 -8.809763 -0.590143 -0.115028 -13.431744 -2.083517 -39.554732 -2.863385 -0.034515 13.748321 0.418062 2.886744 3.076943 0.937500 -0.000000 -19.089100 10.735330 -1.688090 -3.443460 4.787506 -4.124928 -11.271948 1.420941 -2.855128 36.151431 0.963389 11.354630 1.826570 1.565701 -0.000000 -68.795600
17.520277 17.029295 2.291051 167.653726 -80.240359 -146.636041 -8.825731 -0.566434 -0.177076 -13.444368 -1.836337 -39.183655 -2.869113 -0.055378 13.710810 0.440803 2.960393 2.633751 0.919000 -0.000000 -18.729500 10.842417 -1.655816 -3.426357 4.635337 -4.015577 -12.707732 1.133659 -3.054587 38.668666 0.892485 11.364510 3.876571 1.972899 0.000000 -70.085900
17.404135 17.051252 2.303480 168.704972 -79.940701 -147.578525 -8.836957 -0.542714 -0.256646 -13.505887 -1.512903 -38.817461 -2.885420 -0.074968 13.669636 0.452699 2.975850 2.243440 0.892201 -0.000000 -18.475701 10.950746 -1.607607 -3.393363 4.494175 -3.851312 -14.137444 0.852450 -3.230562 41.140300 0.795242 11.193408 5.751981 2.324700 -0.000000 -70.898000
17.289681 17.071687 2.313599 169.549024 -79.650466 -148.334616 -8.842352 -0.519600 -0.351509 -13.611306 -1.141410 -38.441723 -2.909865 -0.093517 13.635985 0.457011 2.951385 1.882586 0.859800 -0.000000 -18.305300 11.057867 -1.545307 -3.352748 4.359401 -3.651863 -15.536856 0.583825 -3.386800 43.546340 0.674925 10.792797 7.387717 2.577600 -0.000000 -71.284100
17.176653 17.090870 2.321746 170.230709 -79.381698 -148.953366 -8.845063 -0.498499 -0.459765 -13.740331 -0.739080 -38.053649 -2.938815 -0.109432 13.628321 0.455947 2.892163 1.521851 0.821100 0.000001 -18.192400 11.156486 -1.471441 -3.312903 4.247017 -3.428859 -16.882632 0.332841 -3.526174 45.867197 0.535385 10.115660 8.710466 2.687500 0.000001 -71.267000
17.065201 17.109089 2.327950 170.713852 -79.142229 -149.404241 -8.843139 -0.478531 -0.575073 -13.887492 -0.342303 -37.632839 -2.969551 -0.125125 13.635363 0.453772 2.825512 1.148607 0.780400 -0.000000 -18.113800 11.248093 -1.387378 -3.281422 4.146464 -3.212561 -18.170236 0.100697 -3.653734 48.097470 0.379006 9.144779 9.691144 2.632900 0.000000 -70.924700
16.955195 17.126661 2.332784 171.047498 -78.940008 -149.734847 -8.838981 -0.459747 -0.692057 -14.035167 0.029590 -37.175081 -2.998954 -0.140916 13.655471 0.452675 2.760892 0.749877 0.738500 -0.000001 -18.048800 11.329346 -1.295006 -3.263364 4.068315 -3.019006 -19.395356 -0.112426 -3.771826 50.225891 0.206680 7.872469 10.312614 2.407100 -0.000000 -70.310500
16.846444 17.143944 2.336340 171.190772 -78.776726 -149.910171 -8.829257 -0.441258 -0.806735 -14.185188 0.346158 -36.649075 -3.025396 -0.161044 13.651902 0.456178 2.727154 0.335604 0.700600 -0.000000 -17.984200 11.404442 -1.194017 -3.263955 3.994104 -2.868156 -20.554362 -0.306603 -3.884528 52.243965 0.018611 6.325704 10.576380 2.028100 -0.000000 -69.393700
16.738801 17.161023 2.339857 171.287296 -78.659331 -150.063621 -8.822428 -0.424150 -0.913848 -14.308347 0.615615 -36.083321 -3.046251 -0.182317 13.642439 0.462580 2.704232 -0.102141 0.662300 0.000001 -17.907500 11.464073 -1.087354 -3.281314 3.961157 -2.756123 -21.653068 -0.482385 -3.989397 54.134382 -0.185865 4.532598 10.501176 1.524600 0.000000 -68.210700
16.632088 17.178193 2.343485 171.316920 -78.585120 -150.174181 -8.816504 -0.407918 -1.012262 -14.408988 0.825566 -35.455917 -3.061238 -0.208061 13.591032 0.473164 2.708352 -0.541656 0.627100 -0.000000 -17.818200 11.511781 -0.975114 -3.316184 3.953919 -2.688177 -22.690369 -0.639251 -4.088181 55.883521 -0.405985 2.562194 10.119914 0.944900 -0.000000 -66.720000
16.526245 17.195534 2.347816 171.333327 -78.551389 -150.291663 -8.814345 -0.393201 -1.101517 -14.479574 0.983424 -34.772861 -3.069873 -0.237855 13.488820 0.486726 2.733366 -0.968929 0.594800 -0.000000 -17.718500 11.545369 -0.858641 -3.365648 3.979545 -2.656022 -23.669057 -0.776870 -4.179631 57.473607 -0.639858 0.488226 9.483653 0.340100 -0.000000 -64.962700
16.420922 17.212955 2.353453 171.423537 -78.557032 -150.492079 -8.821529 -0.380373 -1.179484 -14.508973 1.108942 -34.065536 -3.072284 -0.268940 13.350645 0.500270 2.757415 -1.377689 0.562600 -0.000000 -17.613600 11.560223 -0.741461 -3.422005 4.056480 -2.644624 -24.602327 -0.894927 -4.260972 58.893640 -0.882658 -1.606119 8.644701 -0.241800 0.000000 -62.880900
16.315914 17.230442 2.360496 171.610168 -78.594402 -150.792333 -8.838642 -0.369490 -1.248170 -14.499095 1.214605 -33.339643 -3.069263 -0.301060 13.171024 0.512480 2.775736 -1.753792 0.531300 0.000001 -17.515300 11.557244 -0.625622 -3.480295 4.179992 -2.640865 -25.493851 -0.992943 -4.331490 60.131542 -1.127140 -3.632313 7.666992 -0.759500 -0.000000 -60.523000
16.211200 17.247904 2.368937 171.923800 -78.656081 -151.219423 -8.866769 -0.360713 -1.309797 -14.450621 1.317387 -32.609310 -3.061698 -0.332781 12.957639 0.521687 2.778667 -2.090494 0.500600 0.000000 -17.436600 11.536652 -0.513667 -3.534562 4.349296 -2.629199 -26.349341 -1.070872 -4.390240 61.179790 -1.363942 -5.509255 6.613593 -1.185500 -0.000000 -57.949500
16.106663 17.265209 2.378631 172.388036 -78.733927 -151.792285 -8.906078 -0.354201 -1.366965 -14.365204 1.433028 -31.890085 -3.050648 -0.362626 12.723207 0.526631 2.757693 -2.387546 0.470100 -0.000000 -17.388600 11.499334 -0.407732 -3.579262 4.561784 -2.594501 -27.175865 -1.129097 -4.436588 62.034990 -1.582888 -7.169053 5.544726 -1.507201 0.000000 -55.254100
16.002062 17.282120 2.389205 173.008150 -78.819852 -152.510587 -8.955294 -0.349357 -1.420656 -14.247845 1.571283 -31.196607 -3.037259 -0.389647 12.483287 0.526946 2.709341 -2.649959 0.439599 -0.000000 -17.378200 11.447533 -0.310110 -3.608488 4.810962 -2.524917 -27.981887 -1.168242 -4.470590 62.699300 -1.774075 -8.559451 4.509029 -1.724700 0.000000 -52.531199
15.897710 17.298585 2.400340 173.779589 -78.903706 -153.376475 -9.012540 -0.347159 -1.477327 -14.100596 1.740026 -30.519979 -3.021777 -0.413223 12.242437 0.523290 2.637242 -2.884023 0.409300 -0.000000 -17.417700 11.383618 -0.220398 -3.624073 5.086846 -2.413993 -28.758657 -1.188987 -4.493144 63.172270 -1.929399 -9.647802 3.548669 -1.848300 0.000000 -49.930200
15.793236 17.314352 2.411477 174.678465 -78.981134 -154.360000 -9.074915 -0.346288 -1.534248 -13.931873 1.936818 -29.875531 -3.005360 -0.433267 12.020216 0.516568 2.544280 -3.104157 0.378900 0.000000 -17.499300 11.310818 -0.140413 -3.619905 5.379848 -2.257048 -29.520114 -1.192255 -4.505202 63.464530 -2.043243 -10.419405 2.685480 -1.893200 -0.000001 -47.536100
